<?xml version="1.0" encoding="UTF-8"?>
<svg id="Layer_2" xmlns="http://www.w3.org/2000/svg" viewBox="0 0 49.28 49.28">
  <defs>
    <style>
      .cls-1 {
        fill: #e2f3f3;
      }

      .cls-2 {
        fill: #f58456;
      }

      .cls-3 {
        fill: #050404;
      }

      .cls-4 {
        fill: #de2826;
      }
    </style>
  </defs>
  <g id="Layer_1-2" data-name="Layer_1">
    <g id="face">
      <path class="cls-2" d="M32.56,35.14c0,2.8-1.56,5.25-3.85,6.52-1.06.6-2.29.93-3.6.93s-2.54-.33-3.6-.93c-2.29-1.27-3.85-3.72-3.85-6.52h14.9Z"/>
      <path class="cls-2" d="M16.42,25.21c0,2.05-1.67,3.72-3.72,3.72s-3.73-1.67-3.73-3.72,1.67-3.73,3.73-3.73,3.72,1.67,3.72,3.73Z"/>
      <path class="cls-2" d="M40.01,25.21c0,2.05-1.67,3.72-3.73,3.72s-3.72-1.67-3.72-3.72,1.66-3.73,3.72-3.73,3.73,1.67,3.73,3.73Z"/>
      <path class="cls-1" d="M32.56,35.14c0,2.8-1.56,5.25-3.85,6.52-1.06.6-2.29.93-3.6.93s-2.54-.33-3.6-.93c-2.29-1.27-3.85-3.72-3.85-6.52h14.9Z"/>
      <g id="eyes">
        <path class="cls-3" d="M16.42,25.21c0,2.05-1.67,3.72-3.72,3.72s-3.73-1.67-3.73-3.72,1.67-3.73,3.73-3.73,3.72,1.67,3.72,3.73Z"/>
        <path class="cls-3" d="M40.01,25.21c0,2.05-1.67,3.72-3.73,3.72s-3.72-1.67-3.72-3.72,1.66-3.73,3.72-3.73,3.73,1.67,3.73,3.73Z"/>
      </g>
    </g>
    <g id="mouth">
      <path class="cls-3" d="M32.56,35.14c0,2.8-1.56,5.25-3.85,6.52-1.06.6-2.29.93-3.6.93s-2.54-.33-3.6-.93c-2.29-1.27-3.85-3.72-3.85-6.52h14.9Z"/>
      <path class="cls-4" d="M28.71,41.66c-1.06.6-2.29.93-3.6.93s-2.54-.33-3.6-.93c.9-.95,2.18-1.55,3.6-1.55s2.7.6,3.6,1.55Z"/>
    </g>
    <path class="cls-1" d="M46.17,37.66c-5.39-5.39-12.84-8.73-21.06-8.73-10.55,0-19.82,5.48-25.11,13.76v6.59h49.28v-7.97c-.93-1.3-1.98-2.52-3.11-3.65ZM28.71,41.66c-1.06.6-2.29.93-3.6.93s-2.54-.33-3.6-.93c-2.29-1.27-3.85-3.72-3.85-6.52h14.9c0,2.8-1.56,5.25-3.85,6.52Z"/>
    <path class="cls-2" d="M0,17.76v24.93c5.29-8.28,14.56-13.76,25.11-13.76,8.22,0,15.67,3.34,21.06,8.73,1.13,1.13,2.18,2.35,3.11,3.65v-23.55H0ZM12.7,28.93c-2.06,0-3.73-1.67-3.73-3.72s1.67-3.73,3.73-3.73,3.72,1.67,3.72,3.73-1.67,3.72-3.72,3.72ZM36.28,28.93c-2.06,0-3.72-1.67-3.72-3.72s1.66-3.73,3.72-3.73,3.73,1.67,3.73,3.73-1.67,3.72-3.73,3.72Z"/>
    <rect class="cls-1" y="10.31" width="49.28" height="7.45"/>
    <rect class="cls-4" width="49.28" height="10.31"/>
  </g>
</svg>